<svg width="32" height="32" viewBox="0 0 32 32" fill="none" xmlns="http://www.w3.org/2000/svg">
<path d="M30 16.0001C30 8.26897 23.7004 1.98069 15.9642 2.00004C8.28834 2.01952 2.0187 8.28844 2.00004 15.9642C1.98064 23.6997 8.26819 30 16 30H25.1992C27.8459 30 29.9917 27.8541 29.9917 25.2075V16.4666C29.997 16.3121 30 16.1568 30 16.0001ZM8.80037 23.7751C6.57165 21.8726 5.19831 18.8288 5.26175 15.7254C5.26622 15.5082 5.27742 15.2903 5.29608 15.0738L5.29757 15.0596C5.62001 11.3568 8.01143 7.90322 11.3642 6.29926C14.717 4.69531 18.9072 5.00136 21.992 7.07402C25.0768 9.14668 26.942 12.9116 26.724 16.6217C26.6763 17.4338 26.536 18.2392 26.3404 19.0289C26.2628 19.3431 26.1688 19.6685 25.9463 19.9036C25.7239 20.1388 25.3343 20.2478 25.0708 20.0596C24.8193 19.8805 24.782 19.5282 24.7604 19.2207C24.5864 16.7301 23.9214 14.1625 22.2383 12.3189C20.9672 10.9268 19.1609 10.0409 17.2838 9.86698C15.4066 9.69314 13.4757 10.229 11.9434 11.3269C10.6619 12.2457 9.65422 13.5602 9.16758 15.0603C8.68094 16.5605 8.73095 18.2407 9.3706 19.6828C9.84008 20.7411 10.62 21.6599 11.5881 22.2958C13.2996 23.4199 15.6417 23.5796 17.4203 22.5646C19.199 21.5494 20.2618 19.3476 19.8088 17.3502C19.3558 15.3529 17.3315 13.7952 15.2946 14.0057C14.9835 14.0378 14.5386 14.0043 14.5274 13.6914C14.5184 13.4496 14.8088 13.322 15.0468 13.2795C17.1136 12.9085 19.3274 13.958 20.4611 15.7254C21.5949 17.4928 21.6524 19.8603 20.7269 21.7449C19.8013 23.6296 17.963 25.0067 15.9231 25.5037C13.1734 26.174 10.6835 25.3813 8.80261 23.7751H8.80037Z" fill="url(#paint0_linear_10588_10)"/>
<defs>
<linearGradient id="paint0_linear_10588_10" x1="2.6285" y1="3.03165" x2="34.0684" y2="33.5252" gradientUnits="userSpaceOnUse">
<stop offset="0.09" stop-color="#FFAB0C"/>
<stop offset="0.31" stop-color="#FF5538"/>
<stop offset="0.46" stop-color="#E9405D"/>
<stop offset="0.75" stop-color="#D266DA"/>
<stop offset="0.89" stop-color="#D584EF"/>
</linearGradient>
</defs>
</svg>
