<svg width="32" height="32" viewBox="0 0 32 32" fill="none" xmlns="http://www.w3.org/2000/svg">
<g clip-path="url(#clip0_10799_11)">
<path d="M23.4667 0H8.53333C3.8205 0 0 3.8205 0 8.53333V23.4667C0 28.1795 3.8205 32 8.53333 32H23.4667C28.1795 32 32 28.1795 32 23.4667V8.53333C32 3.8205 28.1795 0 23.4667 0Z" fill="black"/>
<path fill-rule="evenodd" clip-rule="evenodd" d="M24.5291 7.04214L24.6122 7.12452L24.6146 7.12216C26.2151 8.72896 25.7561 11.9575 23.4354 15.6175L28 20.1837L27.8039 20.5658C27.0367 22.0625 25.9978 23.4034 24.7401 24.52C23.0836 25.9988 21.0843 27.0408 18.9233 27.5516L18.8449 27.5704L18.7327 27.5971L18.6518 27.6151L18.4737 27.6544C18.4247 27.6646 18.3755 27.6743 18.3263 27.6834L18.2156 27.7046C18.0979 27.7281 17.9748 27.7501 17.8547 27.7705L17.7543 27.7854L17.6782 27.7948C17.5691 27.8097 17.4632 27.823 17.355 27.8356C15.5557 28.0382 13.734 27.8362 12.0229 27.2442C10.3119 26.6522 8.75474 25.6853 7.46545 24.4141L7.39013 24.3411C5.78647 22.7343 6.24073 19.5035 8.56463 15.8411L4 11.2749L4.19614 10.8928C4.96194 9.39552 6.00198 8.05528 7.26224 6.94171C8.5501 5.79595 10.0459 4.90797 11.6684 4.32596C12.045 4.19023 12.4388 4.07176 12.8256 3.97133C13.1445 3.88614 13.4667 3.81416 13.7914 3.75557C13.9013 3.73361 14.0252 3.71085 14.1453 3.69045C16.0176 3.39855 17.9323 3.5497 19.7356 4.13178C21.539 4.71387 23.1807 5.71066 24.5291 7.04214ZM22.9858 7.23828H22.9811L22.9858 7.24063C21.4347 6.76048 18.9735 7.53642 16.3719 9.2507C18.3514 8.69915 20.2657 8.98473 21.503 10.2228C22.6751 11.3973 22.996 13.1798 22.5519 15.0526C22.5315 15.153 22.5049 15.2534 22.4735 15.3562C24.5973 12.1434 25.2768 9.13772 23.932 7.79533C23.9095 7.77152 23.8859 7.74875 23.8614 7.72707L23.8512 7.71765L23.8363 7.70431C23.8211 7.69322 23.8062 7.6817 23.7916 7.66979C23.772 7.6541 23.7523 7.63841 23.7312 7.62429L23.6982 7.60075C23.4836 7.43947 23.2425 7.31682 22.9858 7.23828ZM21.9212 14.4602C21.6473 16.0937 20.7443 17.7445 19.3752 19.112C18.0101 20.4803 16.3562 21.3841 14.7204 21.6602C13.1897 21.9192 11.8692 21.5818 11.0039 20.7188C10.1408 19.855 9.80347 18.5392 10.0624 17.0007C10.3362 15.3688 11.2369 13.7173 12.5997 12.3513C12.5997 12.3513 12.602 12.3513 12.6075 12.3435L12.6122 12.3356C13.9797 10.9768 15.6273 10.0753 17.2592 9.80226C18.7899 9.54335 20.1072 9.87914 20.9757 10.7437C21.8388 11.6068 22.1761 12.9248 21.9172 14.461H21.9219L21.9212 14.4602ZM8.04995 7.82278C7.00815 8.74483 6.13078 9.83736 5.45538 11.0536L5.44753 11.056L9.40804 15.0071C9.73128 14.5528 10.0749 14.1033 10.4437 13.6592C10.5723 13.5062 10.7049 13.3477 10.8407 13.19L10.8924 13.1312L11.0807 12.9209C11.0862 12.9162 11.0917 12.906 11.0917 12.906L11.1263 12.8668L11.1443 12.8456C11.177 12.8097 11.2094 12.7736 11.2416 12.7373C11.2918 12.6816 11.342 12.6244 11.3954 12.5702C11.3954 12.5647 11.4032 12.5569 11.4032 12.5569L11.4879 12.4643C11.5087 12.444 11.5289 12.4231 11.5483 12.4015C11.5507 12.3968 11.5531 12.3968 11.5531 12.3968C11.5585 12.3937 11.5585 12.389 11.5585 12.389C11.5617 12.3851 11.5664 12.3804 11.5695 12.3749C11.5729 12.3702 11.5766 12.3657 11.5805 12.3615C11.5902 12.3543 11.5989 12.3459 11.6064 12.3364C11.6112 12.331 11.6162 12.3258 11.6213 12.3207C11.6535 12.2886 11.6919 12.2509 11.7264 12.2132C11.7437 12.1905 11.7665 12.1685 11.7892 12.1458L11.8214 12.1128C11.8269 12.105 11.8418 12.0901 11.8418 12.0901L11.9022 12.0304L12.0199 11.9143L12.0591 11.8727L12.103 11.8264C12.9515 10.9758 13.8577 10.1849 14.8153 9.4594L14.9408 9.3676H14.9416V9.36682L14.9432 9.36603L15.0687 9.27346C15.2099 9.16832 15.3496 9.06554 15.4924 8.96512C15.6438 8.86234 15.7968 8.75878 15.9474 8.65914C18.0046 7.28771 20.0194 6.46469 21.6638 6.3015C19.4638 4.97421 16.867 4.46318 14.3281 4.85789C14.2182 4.87516 14.1131 4.8932 14.0001 4.91595C13.9287 4.92851 13.8668 4.94106 13.804 4.95361L13.7663 4.96146C13.1898 5.08067 12.6222 5.2398 12.0677 5.43769C10.5881 5.96757 9.22348 6.77734 8.04995 7.82278ZM8.26806 23.8343C8.48696 24.0022 8.73802 24.1277 9.01889 24.2156H9.0134C10.5747 24.6926 13.0265 23.9143 15.6187 22.2047C13.6416 22.7539 11.7312 22.4684 10.4939 21.2303C9.32723 20.0613 9.00634 18.2733 9.44805 16.4005C9.47081 16.3001 9.49513 16.1996 9.52573 16.0969C7.40268 19.3105 6.72481 22.3154 8.068 23.6585C8.09781 23.6884 8.13076 23.7182 8.16528 23.7488C8.19823 23.7786 8.23119 23.806 8.26806 23.8343ZM26.5423 20.4057V20.4073C25.866 21.6218 24.9893 22.7134 23.9493 23.6358C22.3929 25.0191 20.5107 25.9844 18.4792 26.4414L18.4541 26.4477L18.3867 26.4634C18.3103 26.4838 18.2331 26.5005 18.1552 26.5136C18.1042 26.5246 18.0532 26.5348 17.9999 26.5426C17.8906 26.564 17.7807 26.5823 17.6703 26.5975L17.5786 26.6132L17.4742 26.6266C17.3903 26.6376 17.3055 26.6493 17.2169 26.658C14.8214 26.928 12.4038 26.4004 10.3385 25.1571C11.9218 25.0009 13.8495 24.2281 15.8266 22.9501L15.9396 22.8763L16.0526 22.8018L16.2063 22.6982H16.2071L16.5045 22.4958C16.6473 22.3954 16.7901 22.2926 16.9281 22.1875C17.016 22.1247 17.0992 22.0643 17.1839 22.0015C18.1408 21.2745 19.0472 20.4834 19.897 19.6337C19.9174 19.6133 19.9362 19.5921 19.9542 19.5725L19.9778 19.5458C20.0201 19.5066 20.0578 19.4682 20.0955 19.4305L20.1551 19.3709C20.1551 19.3709 20.1708 19.3552 20.1731 19.3473C20.181 19.3411 20.1888 19.3332 20.1959 19.3254C20.1989 19.3219 20.2021 19.3185 20.2053 19.3152L20.2736 19.2477L20.3261 19.1928C20.3434 19.1763 20.3614 19.1583 20.3787 19.1394C20.3836 19.1344 20.3883 19.1291 20.3928 19.1237C20.4004 19.1146 20.4091 19.1064 20.4187 19.0994C20.4229 19.095 20.4269 19.0903 20.4305 19.0853C20.4338 19.0806 20.4375 19.0762 20.4415 19.072C20.4415 19.072 20.4493 19.0641 20.454 19.0618C20.4612 19.0543 20.4683 19.0467 20.4752 19.039L20.4964 19.0162L20.5168 18.9966C20.494 19.0194 20.4744 19.0437 20.454 19.0688L20.5026 19.0178L20.5034 19.0162C20.538 18.9802 20.5709 18.9449 20.6046 18.9111C20.6046 18.9111 20.6046 18.9033 20.6125 18.9033C20.6588 18.8538 20.7027 18.8044 20.7466 18.7542L20.8353 18.6553C20.8464 18.6471 20.8557 18.6367 20.8628 18.6247L20.913 18.5643L20.9255 18.5494C20.9875 18.4843 21.0456 18.4176 21.1052 18.3509L21.1664 18.2803C21.2645 18.1666 21.3625 18.0497 21.4598 17.9343L21.5775 17.7939L21.6144 17.7484C21.6615 17.6895 21.7077 17.6315 21.754 17.5758C21.7933 17.5287 21.8317 17.4801 21.8694 17.4314C22.1202 17.1137 22.3635 16.7901 22.599 16.4609L26.5423 20.4057ZM26.5423 20.4057C26.5423 20.4034 26.5438 20.401 26.547 20.3994V20.412L26.5423 20.4073H26.5438L26.5423 20.4057Z" fill="white"/>
</g>
<defs>
<clipPath id="clip0_10799_11">
<rect width="32" height="32" fill="white"/>
</clipPath>
</defs>
</svg>
