<svg width="32" height="32" viewBox="0 0 32 32" fill="none" xmlns="http://www.w3.org/2000/svg">
<g clip-path="url(#clip0_10588_12)">
<path d="M23.4667 0H8.53333C3.8205 0 0 3.8205 0 8.53333V23.4667C0 28.1795 3.8205 32 8.53333 32H23.4667C28.1795 32 32 28.1795 32 23.4667V8.53333C32 3.8205 28.1795 0 23.4667 0Z" fill="black"/>
<path d="M12.8717 10.7004C12.7022 10.7396 12.5306 10.7811 12.3576 10.8254C1.96421 13.4625 5.62551 23.277 5.62551 23.277H13.5623C13.4337 21.9347 12.5139 20.4647 10.2636 19.4619V19.363C12.8856 20.2023 13.8291 21.6354 14.2132 23.2762H24.0043L22.4293 21.8716C23.3505 18.8566 27 17.4316 27 17.4316C26.8708 15.0132 25.6807 12.7583 21.6991 10.9322L12.6452 7.20001C12.9495 11.1778 14.3049 13.4596 17.7037 14.0191V14.1165C15.3422 14.0562 13.7033 12.9574 12.8717 10.7004Z" fill="white"/>
</g>
<defs>
<clipPath id="clip0_10588_12">
<rect width="32" height="32" fill="white"/>
</clipPath>
</defs>
</svg>
