<svg width="32" height="32" viewBox="0 0 32 32" fill="none" xmlns="http://www.w3.org/2000/svg">
<path d="M28.584 14.4008C28.6522 14.3416 28.736 14.3033 28.8254 14.2904C28.9148 14.2776 29.006 14.2907 29.0881 14.3283C29.1702 14.3659 29.2398 14.4263 29.2885 14.5023C29.3372 14.5783 29.363 14.6668 29.3628 14.7571V26.384C29.3628 26.7798 28.9041 26.9996 28.5947 26.751L21.2012 20.7722L28.584 14.4008Z" fill="url(#paint0_linear_54846_56880)"/>
<path fill-rule="evenodd" clip-rule="evenodd" d="M4.94206 13.239C4.69221 13.239 4.45259 13.3383 4.27592 13.5149C4.09925 13.6916 4 13.9312 4 14.1811V28.0581C4 28.5787 4.42142 29.0001 4.94206 29.0001H10.1634C10.4132 29.0001 10.6529 28.9009 10.8295 28.7242C11.0062 28.5475 11.1055 28.3079 11.1055 28.0581V26.6455L22.9212 28.1722C23.054 28.1895 23.189 28.1783 23.3171 28.1393C23.4452 28.1003 23.5636 28.0344 23.6642 27.9461C23.7649 27.8577 23.8456 27.749 23.9009 27.627C23.9562 27.505 23.9848 27.3726 23.9849 27.2387V14.1811C23.9849 13.9312 23.8856 13.6916 23.709 13.5149C23.5323 13.3383 23.2927 13.239 23.0428 13.239H4.94206ZM11.56 17.9482C11.4351 17.9482 11.3153 17.9978 11.2269 18.086C11.1385 18.1742 11.0887 18.2939 11.0884 18.4187V21.502C11.0884 21.7624 11.2996 21.9725 11.56 21.9725H16.3716C16.4965 21.9725 16.6163 21.923 16.7047 21.8348C16.7931 21.7466 16.8429 21.6269 16.8432 21.502V18.4187C16.8429 18.2939 16.7931 18.1742 16.7047 18.086C16.6163 17.9978 16.4965 17.9482 16.3716 17.9482H11.56Z" fill="url(#paint1_linear_54846_56880)"/>
<path d="M13.1811 8.42406C13.1811 9.46647 12.767 10.4662 12.0299 11.2033C11.2928 11.9404 10.2931 12.3545 9.25072 12.3545C8.20831 12.3545 7.2086 11.9404 6.4715 11.2033C5.73441 10.4662 5.32031 9.46647 5.32031 8.42406C5.32031 7.38165 5.73441 6.38194 6.4715 5.64484C7.2086 4.90775 8.20831 4.49365 9.25072 4.49365C10.2931 4.49365 11.2928 4.90775 12.0299 5.64484C12.767 6.38194 13.1811 7.38165 13.1811 8.42406Z" fill="url(#paint2_linear_54846_56880)"/>
<path d="M22.6111 7.7167C22.6111 8.96765 22.1142 10.1674 21.2296 11.0519C20.3451 11.9365 19.1454 12.4334 17.8944 12.4334C16.6435 12.4334 15.4438 11.9365 14.5592 11.0519C13.6747 10.1674 13.1777 8.96765 13.1777 7.7167C13.1777 6.46575 13.6747 5.26604 14.5592 4.38149C15.4438 3.49694 16.6435 3 17.8944 3C19.1454 3 20.3451 3.49694 21.2296 4.38149C22.1142 5.26604 22.6111 6.46575 22.6111 7.7167Z" fill="url(#paint3_linear_54846_56880)"/>
<path d="M28.584 14.4008C28.6522 14.3416 28.736 14.3033 28.8254 14.2904C28.9148 14.2776 29.006 14.2907 29.0881 14.3283C29.1702 14.3659 29.2398 14.4263 29.2885 14.5023C29.3372 14.5783 29.363 14.6668 29.3628 14.7571V26.384C29.3628 26.7798 28.9041 26.9996 28.5947 26.751L21.2012 20.7722L28.584 14.4008Z" fill="url(#paint4_linear_54846_56880)"/>
<path fill-rule="evenodd" clip-rule="evenodd" d="M4.94206 13.239C4.69221 13.239 4.45259 13.3383 4.27592 13.5149C4.09925 13.6916 4 13.9312 4 14.1811V28.0581C4 28.5787 4.42142 29.0001 4.94206 29.0001H10.1634C10.4132 29.0001 10.6529 28.9009 10.8295 28.7242C11.0062 28.5475 11.1055 28.3079 11.1055 28.0581V26.6455L22.9212 28.1722C23.054 28.1895 23.189 28.1783 23.3171 28.1393C23.4452 28.1003 23.5636 28.0344 23.6642 27.9461C23.7649 27.8577 23.8456 27.749 23.9009 27.627C23.9562 27.505 23.9848 27.3726 23.9849 27.2387V14.1811C23.9849 13.9312 23.8856 13.6916 23.709 13.5149C23.5323 13.3383 23.2927 13.239 23.0428 13.239H4.94206ZM11.56 17.9482C11.4351 17.9482 11.3153 17.9978 11.2269 18.086C11.1385 18.1742 11.0887 18.2939 11.0884 18.4187V21.502C11.0884 21.7624 11.2996 21.9725 11.56 21.9725H16.3716C16.4965 21.9725 16.6163 21.923 16.7047 21.8348C16.7931 21.7466 16.8429 21.6269 16.8432 21.502V18.4187C16.8429 18.2939 16.7931 18.1742 16.7047 18.086C16.6163 17.9978 16.4965 17.9482 16.3716 17.9482H11.56Z" fill="url(#paint5_linear_54846_56880)"/>
<path fill-rule="evenodd" clip-rule="evenodd" d="M4.94206 13.239C4.69221 13.239 4.45259 13.3383 4.27592 13.5149C4.09925 13.6916 4 13.9312 4 14.1811V28.0581C4 28.5787 4.42142 29.0001 4.94206 29.0001H10.1634C10.4132 29.0001 10.6529 28.9009 10.8295 28.7242C11.0062 28.5475 11.1055 28.3079 11.1055 28.0581V26.6455L22.9212 28.1722C23.054 28.1895 23.189 28.1783 23.3171 28.1393C23.4452 28.1003 23.5636 28.0344 23.6642 27.9461C23.7649 27.8577 23.8456 27.749 23.9009 27.627C23.9562 27.505 23.9848 27.3726 23.9849 27.2387V14.1811C23.9849 13.9312 23.8856 13.6916 23.709 13.5149C23.5323 13.3383 23.2927 13.239 23.0428 13.239H4.94206ZM11.56 17.9482C11.4351 17.9482 11.3153 17.9978 11.2269 18.086C11.1385 18.1742 11.0887 18.2939 11.0884 18.4187V21.502C11.0884 21.7624 11.2996 21.9725 11.56 21.9725H16.3716C16.4965 21.9725 16.6163 21.923 16.7047 21.8348C16.7931 21.7466 16.8429 21.6269 16.8432 21.502V18.4187C16.8429 18.2939 16.7931 18.1742 16.7047 18.086C16.6163 17.9978 16.4965 17.9482 16.3716 17.9482H11.56Z" fill="url(#paint6_radial_54846_56880)" fill-opacity="0.75"/>
<path d="M13.1811 8.42406C13.1811 9.46647 12.767 10.4662 12.0299 11.2033C11.2928 11.9404 10.2931 12.3545 9.25072 12.3545C8.20831 12.3545 7.2086 11.9404 6.4715 11.2033C5.73441 10.4662 5.32031 9.46647 5.32031 8.42406C5.32031 7.38165 5.73441 6.38194 6.4715 5.64484C7.2086 4.90775 8.20831 4.49365 9.25072 4.49365C10.2931 4.49365 11.2928 4.90775 12.0299 5.64484C12.767 6.38194 13.1811 7.38165 13.1811 8.42406Z" fill="url(#paint7_linear_54846_56880)"/>
<path d="M22.6111 7.7167C22.6111 8.96765 22.1142 10.1674 21.2296 11.0519C20.3451 11.9365 19.1454 12.4334 17.8944 12.4334C16.6435 12.4334 15.4438 11.9365 14.5592 11.0519C13.6747 10.1674 13.1777 8.96765 13.1777 7.7167C13.1777 6.46575 13.6747 5.26604 14.5592 4.38149C15.4438 3.49694 16.6435 3 17.8944 3C19.1454 3 20.3451 3.49694 21.2296 4.38149C22.1142 5.26604 22.6111 6.46575 22.6111 7.7167Z" fill="url(#paint8_linear_54846_56880)"/>
<defs>
<linearGradient id="paint0_linear_54846_56880" x1="21.8413" y1="6.74585" x2="5.41126" y2="29.1504" gradientUnits="userSpaceOnUse">
<stop stop-color="#E9632A"/>
<stop offset="0.466" stop-color="#AC5DE1"/>
<stop offset="1" stop-color="#349EEB"/>
</linearGradient>
<linearGradient id="paint1_linear_54846_56880" x1="21.8415" y1="6.74595" x2="5.41149" y2="29.1505" gradientUnits="userSpaceOnUse">
<stop stop-color="#E9632A"/>
<stop offset="0.466" stop-color="#AC5DE1"/>
<stop offset="1" stop-color="#349EEB"/>
</linearGradient>
<linearGradient id="paint2_linear_54846_56880" x1="21.8421" y1="6.74585" x2="5.41207" y2="29.1504" gradientUnits="userSpaceOnUse">
<stop stop-color="#E9632A"/>
<stop offset="0.466" stop-color="#AC5DE1"/>
<stop offset="1" stop-color="#349EEB"/>
</linearGradient>
<linearGradient id="paint3_linear_54846_56880" x1="21.8408" y1="6.74584" x2="5.41081" y2="29.1504" gradientUnits="userSpaceOnUse">
<stop stop-color="#E9632A"/>
<stop offset="0.466" stop-color="#AC5DE1"/>
<stop offset="1" stop-color="#349EEB"/>
</linearGradient>
<linearGradient id="paint4_linear_54846_56880" x1="21.8413" y1="6.74585" x2="5.41126" y2="29.1504" gradientUnits="userSpaceOnUse">
<stop stop-color="#E9632A"/>
<stop offset="0.61" stop-color="#B664E8"/>
</linearGradient>
<linearGradient id="paint5_linear_54846_56880" x1="21.8415" y1="6.74595" x2="5.41149" y2="29.1505" gradientUnits="userSpaceOnUse">
<stop stop-color="#E9632A"/>
<stop offset="0.61" stop-color="#B664E8"/>
</linearGradient>
<radialGradient id="paint6_radial_54846_56880" cx="0" cy="0" r="1" gradientUnits="userSpaceOnUse" gradientTransform="translate(5 29) rotate(90) scale(9.5 22.8895)">
<stop stop-color="#7DD6CD" stop-opacity="0.839216"/>
<stop offset="1" stop-color="#7DD6CD" stop-opacity="0"/>
</radialGradient>
<linearGradient id="paint7_linear_54846_56880" x1="21.8421" y1="6.74585" x2="5.41207" y2="29.1504" gradientUnits="userSpaceOnUse">
<stop stop-color="#E9632A"/>
<stop offset="0.61" stop-color="#B664E8"/>
</linearGradient>
<linearGradient id="paint8_linear_54846_56880" x1="21.8408" y1="6.74584" x2="5.41081" y2="29.1504" gradientUnits="userSpaceOnUse">
<stop stop-color="#E9632A"/>
<stop offset="0.61" stop-color="#B664E8"/>
</linearGradient>
</defs>
</svg>
