<svg width="32" height="32" viewBox="0 0 32 32" fill="none" xmlns="http://www.w3.org/2000/svg">
<path d="M27.476 3.32975C23.5864 2.04137 20.2411 4.77447 19.4613 7.27589C19.4613 7.27589 16.6547 16.2889 15.4586 20.0505C14.8879 21.8436 13.4733 24.7802 10.8099 24.7802C8.64001 24.7802 7.52492 22.744 7.05402 21.531L3.81988 12.9079C3.44505 12 3.83684 10.1879 5.33995 9.64546C6.94477 9.06908 7.97699 10.4121 8.24446 11.1241L12.2735 21.4462C13.2341 20.2087 13.8444 18.1951 14.2418 16.7692L11.5954 9.82252C10.3409 6.58084 7.02389 5.10787 3.94985 6.23991C1.45973 7.15722 -0.936206 10.2991 0.367244 14.2471L3.70498 22.8325C4.21167 24.1341 6.21394 28.3835 10.7383 28.3835C16.1688 28.3835 18.2068 23.7536 19.337 20.0938C19.902 18.2629 23.0025 8.36461 23.0025 8.36461C23.4526 6.88599 25.2835 6.46029 26.4268 6.83324C27.233 7.09507 28.6909 8.20827 28.22 9.93365C28.1315 10.2482 25.6602 18.2121 24.7485 20.6344C24.272 21.8983 23.0646 24.6427 20.3164 24.2603C19.4782 26.1156 18.7832 27.1931 17.7303 28.1612C21.1584 29.7849 26.1556 28.1499 28.2596 21.7928C29.0413 19.4289 31.7857 10.9056 31.7857 10.9056C32.5824 8.28738 31.1603 4.54844 27.476 3.32975Z" fill="url(#paint0_linear_10588_8)"/>
<defs>
<linearGradient id="paint0_linear_10588_8" x1="1.01202" y1="7.84952" x2="34.874" y2="23.4151" gradientUnits="userSpaceOnUse">
<stop stop-color="#40EDD8"/>
<stop offset="0.0241" stop-color="#38E7E2"/>
<stop offset="0.0844" stop-color="#28DAF7"/>
<stop offset="0.1241" stop-color="#22D5FF"/>
<stop offset="0.3602" stop-color="#1ABFFF"/>
<stop offset="0.8502" stop-color="#0786FE"/>
<stop offset="0.9088" stop-color="#047FFE"/>
</linearGradient>
</defs>
</svg>
