<svg width="32" height="32" viewBox="0 0 32 32" fill="none" xmlns="http://www.w3.org/2000/svg">
<path d="M11.6443 0.753845L13.8229 4.52806L11.6443 8.29908H29.0703L26.8917 12.0717H9.90298L7.50568 7.922L11.6443 0.753845Z" fill="white"/>
<path d="M2.93243 8.29797H7.28815L15.7809 23.0114L13.3868 27.1627L5.11108 27.1611L7.28973 23.3869L11.6455 23.3885L2.93243 8.29797Z" fill="white"/>
<path d="M13.8218 27.1617L16.0004 30.9343L24.7134 15.8438L26.8905 19.6165H31.2478L27.1108 12.4483L22.3193 12.4499L13.8218 27.1617Z" fill="white"/>
<path d="M11.6443 0.753845L13.8229 4.52806L11.6443 8.29908H29.0703L26.8917 12.0717H9.90298L7.50568 7.922L11.6443 0.753845Z" fill="url(#paint0_linear_10994_33)"/>
<path d="M5.1095 27.1627L7.28815 23.3885L11.6439 23.3901L2.93243 8.29797H7.28656L15.7809 23.0114L13.3868 27.1627H5.1095Z" fill="url(#paint1_linear_10994_33)"/>
<path d="M31.2496 19.6165H26.8923L24.7136 15.8438L16.0022 30.9343L13.8235 27.1633L22.3195 12.4499L27.1109 12.4483L31.2496 19.6165Z" fill="url(#paint2_linear_10994_33)"/>
<path d="M31.9002 19.2387L28.1989 12.8263L27.7631 12.0705L29.7231 8.67659C29.7897 8.56088 29.8245 8.42937 29.8245 8.29946C29.8245 8.16955 29.7912 8.03804 29.7231 7.92237L27.5445 4.14973C27.4779 4.03406 27.3813 3.939 27.2687 3.87403C27.1563 3.80907 27.0263 3.77263 26.8917 3.77263H18.6143L16.6544 0.377104C16.5197 0.144187 16.2709 0 16.0016 0H11.6459C11.5112 0 11.3813 0.0364428 11.2687 0.101406C11.1563 0.16637 11.0596 0.261438 10.9915 0.377104L7.28857 6.79107L6.85285 7.54369H2.93285C2.79817 7.54369 2.66825 7.58013 2.55575 7.64506C2.44325 7.71004 2.3466 7.80511 2.27847 7.92077L0.101406 11.6918C0.0348584 11.8075 0 11.939 0 12.0689C0 12.1989 0.0332739 12.3304 0.101406 12.446L4.24005 19.6142L2.28006 23.0097C2.21351 23.127 2.17865 23.2569 2.17865 23.3868C2.17865 23.5167 2.21192 23.6483 2.28006 23.7639L4.4587 27.5365C4.52525 27.6522 4.6219 27.7473 4.7344 27.8122C4.8469 27.8772 4.97683 27.9137 5.1115 27.9137H13.3872L15.3472 31.3092C15.4819 31.5421 15.7306 31.6862 16 31.6862H20.3557C20.4904 31.6862 20.6203 31.6498 20.7328 31.5849C20.8453 31.5199 20.942 31.4248 21.0085 31.3092L25.1471 24.141H29.0671C29.2018 24.141 29.3317 24.1046 29.4442 24.0396C29.5567 23.9747 29.6534 23.8796 29.7199 23.7639L31.8986 19.9913C31.9667 19.8756 32 19.7441 32 19.6142C32 19.4842 31.9667 19.3527 31.8986 19.2371L31.9002 19.2387ZM11.6443 0.752625L13.8229 4.52525L11.6443 8.29786H29.0703L26.8932 12.0689H9.90297L7.50565 7.91917L11.6443 0.752625ZM13.3872 27.1626H5.1115L7.29017 23.3868H11.6459L2.93286 8.29786H7.28857L9.46565 12.0705L15.7813 23.0128L13.3856 27.1642L13.3872 27.1626ZM26.8901 19.6142L24.713 15.8415L16 30.9321L13.8214 27.1594L16 23.3868L22.3173 12.4476H27.1103L31.2474 19.6126H26.8901V19.6142Z" fill="url(#paint3_linear_10994_33)"/>
<path d="M31.9002 19.2387L28.1989 12.8263L27.7631 12.0705L29.7231 8.67659C29.7897 8.56088 29.8245 8.42937 29.8245 8.29946C29.8245 8.16955 29.7912 8.03804 29.7231 7.92237L27.5445 4.14973C27.4779 4.03406 27.3813 3.939 27.2687 3.87403C27.1563 3.80907 27.0263 3.77263 26.8917 3.77263H18.6143L16.6544 0.377104C16.5197 0.144187 16.2709 0 16.0016 0H11.6459C11.5112 0 11.3813 0.0364428 11.2687 0.101406C11.1563 0.16637 11.0596 0.261438 10.9915 0.377104L7.28857 6.79107L6.85285 7.54369H2.93285C2.79817 7.54369 2.66825 7.58013 2.55575 7.64506C2.44325 7.71004 2.3466 7.80511 2.27847 7.92077L0.101406 11.6918C0.0348584 11.8075 0 11.939 0 12.0689C0 12.1989 0.0332739 12.3304 0.101406 12.446L4.24005 19.6142L2.28006 23.0097C2.21351 23.127 2.17865 23.2569 2.17865 23.3868C2.17865 23.5167 2.21192 23.6483 2.28006 23.7639L4.4587 27.5365C4.52525 27.6522 4.6219 27.7473 4.7344 27.8122C4.8469 27.8772 4.97683 27.9137 5.1115 27.9137H13.3872L15.3472 31.3092C15.4819 31.5421 15.7306 31.6862 16 31.6862H20.3557C20.4904 31.6862 20.6203 31.6498 20.7328 31.5849C20.8453 31.5199 20.942 31.4248 21.0085 31.3092L25.1471 24.141H29.0671C29.2018 24.141 29.3317 24.1046 29.4442 24.0396C29.5567 23.9747 29.6534 23.8796 29.7199 23.7639L31.8986 19.9913C31.9667 19.8756 32 19.7441 32 19.6142C32 19.4842 31.9667 19.3527 31.8986 19.2371L31.9002 19.2387ZM11.6443 0.752625L13.8229 4.52525L11.6443 8.29786H29.0703L26.8932 12.0689H9.90297L7.50565 7.91917L11.6443 0.752625ZM13.3872 27.1626H5.1115L7.29017 23.3868H11.6459L2.93286 8.29786H7.28857L9.46565 12.0705L15.7813 23.0128L13.3856 27.1642L13.3872 27.1626ZM26.8901 19.6142L24.713 15.8415L16 30.9321L13.8214 27.1594L16 23.3868L22.3173 12.4476H27.1103L31.2474 19.6126H26.8901V19.6142Z" fill="url(#paint4_linear_10994_33)"/>
<path d="M31.9002 19.2387L28.1989 12.8263L27.7631 12.0705L29.7231 8.67659C29.7897 8.56088 29.8245 8.42937 29.8245 8.29946C29.8245 8.16955 29.7912 8.03804 29.7231 7.92237L27.5445 4.14973C27.4779 4.03406 27.3813 3.939 27.2687 3.87403C27.1563 3.80907 27.0263 3.77263 26.8917 3.77263H18.6143L16.6544 0.377104C16.5197 0.144187 16.2709 0 16.0016 0H11.6459C11.5112 0 11.3813 0.0364428 11.2687 0.101406C11.1563 0.16637 11.0596 0.261438 10.9915 0.377104L7.28857 6.79107L6.85285 7.54369H2.93285C2.79817 7.54369 2.66825 7.58013 2.55575 7.64506C2.44325 7.71004 2.3466 7.80511 2.27847 7.92077L0.101406 11.6918C0.0348584 11.8075 0 11.939 0 12.0689C0 12.1989 0.0332739 12.3304 0.101406 12.446L4.24005 19.6142L2.28006 23.0097C2.21351 23.127 2.17865 23.2569 2.17865 23.3868C2.17865 23.5167 2.21192 23.6483 2.28006 23.7639L4.4587 27.5365C4.52525 27.6522 4.6219 27.7473 4.7344 27.8122C4.8469 27.8772 4.97683 27.9137 5.1115 27.9137H13.3872L15.3472 31.3092C15.4819 31.5421 15.7306 31.6862 16 31.6862H20.3557C20.4904 31.6862 20.6203 31.6498 20.7328 31.5849C20.8453 31.5199 20.942 31.4248 21.0085 31.3092L25.1471 24.141H29.0671C29.2018 24.141 29.3317 24.1046 29.4442 24.0396C29.5567 23.9747 29.6534 23.8796 29.7199 23.7639L31.8986 19.9913C31.9667 19.8756 32 19.7441 32 19.6142C32 19.4842 31.9667 19.3527 31.8986 19.2371L31.9002 19.2387ZM11.6443 0.752625L13.8229 4.52525L11.6443 8.29786H29.0703L26.8932 12.0689H9.90297L7.50565 7.91917L11.6443 0.752625ZM13.3872 27.1626H5.1115L7.29017 23.3868H11.6459L2.93286 8.29786H7.28857L9.46565 12.0705L15.7813 23.0128L13.3856 27.1642L13.3872 27.1626ZM26.8901 19.6142L24.713 15.8415L16 30.9321L13.8214 27.1594L16 23.3868L22.3173 12.4476H27.1103L31.2474 19.6126H26.8901V19.6142Z" fill="url(#paint5_linear_10994_33)"/>
<defs>
<linearGradient id="paint0_linear_10994_33" x1="9.79365" y1="11.8832" x2="16.3546" y2="-1.86734" gradientUnits="userSpaceOnUse">
<stop stop-color="#6964ED" stop-opacity="0.53"/>
<stop offset="0.01" stop-color="#8884F1" stop-opacity="0.62"/>
<stop offset="0.03" stop-color="#A4A2F4" stop-opacity="0.72"/>
<stop offset="0.04" stop-color="#BDBBF7" stop-opacity="0.79"/>
<stop offset="0.06" stop-color="#D2D0F9" stop-opacity="0.86"/>
<stop offset="0.07" stop-color="#E2E1FB" stop-opacity="0.91"/>
<stop offset="0.09" stop-color="#EFEFFD" stop-opacity="0.95"/>
<stop offset="0.12" stop-color="#F8F8FE" stop-opacity="0.98"/>
<stop offset="0.15" stop-color="#FDFDFE"/>
<stop offset="0.25" stop-color="white"/>
</linearGradient>
<linearGradient id="paint1_linear_10994_33" x1="15.6744" y1="23.2002" x2="-1.5739" y2="18.5812" gradientUnits="userSpaceOnUse">
<stop stop-color="#6964ED" stop-opacity="0.53"/>
<stop offset="0.01" stop-color="#8884F1" stop-opacity="0.62"/>
<stop offset="0.03" stop-color="#A4A2F4" stop-opacity="0.72"/>
<stop offset="0.04" stop-color="#BDBBF7" stop-opacity="0.79"/>
<stop offset="0.06" stop-color="#D2D0F9" stop-opacity="0.86"/>
<stop offset="0.07" stop-color="#E2E1FB" stop-opacity="0.91"/>
<stop offset="0.09" stop-color="#EFEFFD" stop-opacity="0.95"/>
<stop offset="0.12" stop-color="#F8F8FE" stop-opacity="0.98"/>
<stop offset="0.15" stop-color="#FDFDFE"/>
<stop offset="0.25" stop-color="white"/>
</linearGradient>
<linearGradient id="paint2_linear_10994_33" x1="22.5368" y1="12.4482" x2="22.5375" y2="30.9348" gradientUnits="userSpaceOnUse">
<stop stop-color="#6964ED" stop-opacity="0.53"/>
<stop offset="0.01" stop-color="#8884F1" stop-opacity="0.62"/>
<stop offset="0.03" stop-color="#A4A2F4" stop-opacity="0.72"/>
<stop offset="0.04" stop-color="#BDBBF7" stop-opacity="0.79"/>
<stop offset="0.06" stop-color="#D2D0F9" stop-opacity="0.86"/>
<stop offset="0.07" stop-color="#E2E1FB" stop-opacity="0.91"/>
<stop offset="0.09" stop-color="#EFEFFD" stop-opacity="0.95"/>
<stop offset="0.12" stop-color="#F8F8FE" stop-opacity="0.98"/>
<stop offset="0.15" stop-color="#FDFDFE"/>
<stop offset="0.25" stop-color="white"/>
</linearGradient>
<linearGradient id="paint3_linear_10994_33" x1="29.7231" y1="7.92077" x2="2.41794" y2="23.9996" gradientUnits="userSpaceOnUse">
<stop stop-color="#615CED"/>
<stop offset="0.17" stop-color="#6156EC"/>
<stop offset="0.38" stop-color="#6147E9"/>
<stop offset="0.61" stop-color="#622FE4"/>
<stop offset="0.62" stop-color="#632DE4"/>
</linearGradient>
<linearGradient id="paint4_linear_10994_33" x1="0" y1="15.8431" x2="32.0016" y2="15.8431" gradientUnits="userSpaceOnUse">
<stop stop-color="#615CED"/>
<stop offset="0.04" stop-color="#615CED" stop-opacity="0.96"/>
<stop offset="0.09" stop-color="#615CED" stop-opacity="0.86"/>
<stop offset="0.17" stop-color="#615CED" stop-opacity="0.69"/>
<stop offset="0.25" stop-color="#615CED" stop-opacity="0.46"/>
<stop offset="0.35" stop-color="#615CED" stop-opacity="0.16"/>
<stop offset="0.4" stop-color="#615CED" stop-opacity="0"/>
</linearGradient>
<linearGradient id="paint5_linear_10994_33" x1="24.0016" y1="1.98534" x2="8.23646" y2="29.8332" gradientUnits="userSpaceOnUse">
<stop stop-color="#A7A5F6"/>
<stop offset="0.05" stop-color="#9895F4" stop-opacity="0.79"/>
<stop offset="0.12" stop-color="#8784F1" stop-opacity="0.55"/>
<stop offset="0.19" stop-color="#7975F0" stop-opacity="0.35"/>
<stop offset="0.25" stop-color="#6F6AEE" stop-opacity="0.2"/>
<stop offset="0.31" stop-color="#6762ED" stop-opacity="0.09"/>
<stop offset="0.36" stop-color="#625DED" stop-opacity="0.02"/>
<stop offset="0.4" stop-color="#615CED" stop-opacity="0"/>
</linearGradient>
</defs>
</svg>
